<svg xmlns="http://www.w3.org/2000/svg" xmlns:xlink="http://www.w3.org/1999/xlink" viewBox="0 0 397.98 481.59"><defs><style>.cls-1{isolation:isolate;}.cls-2{fill:#1a122b;}.cls-3,.cls-4,.cls-5{fill:none;stroke-miterlimit:10;}.cls-3{stroke:#00f3ee;}.cls-3,.cls-4{stroke-width:0.25px;}.cls-4{stroke:#419fe5;}.cls-5{stroke:#30c5e5;stroke-width:0.5px;}.cls-10,.cls-11,.cls-12,.cls-13,.cls-14,.cls-15,.cls-16,.cls-17,.cls-6,.cls-7,.cls-8,.cls-9{mix-blend-mode:overlay;}.cls-6{fill:url(#linear-gradient);}.cls-7{fill:url(#linear-gradient-2);}.cls-8{fill:url(#linear-gradient-3);}.cls-9{fill:url(#linear-gradient-4);}.cls-10{fill:url(#linear-gradient-5);}.cls-11{fill:url(#linear-gradient-6);}.cls-12{fill:url(#linear-gradient-7);}.cls-13{fill:url(#linear-gradient-8);}.cls-14{fill:url(#linear-gradient-9);}.cls-15{fill:url(#linear-gradient-10);}.cls-16{fill:url(#linear-gradient-11);}.cls-17{fill:url(#linear-gradient-12);}.cls-100,.cls-101,.cls-102,.cls-103,.cls-104,.cls-105,.cls-106,.cls-107,.cls-108,.cls-109,.cls-110,.cls-111,.cls-112,.cls-113,.cls-114,.cls-115,.cls-116,.cls-117,.cls-118,.cls-119,.cls-120,.cls-121,.cls-122,.cls-123,.cls-124,.cls-125,.cls-126,.cls-127,.cls-128,.cls-129,.cls-130,.cls-131,.cls-132,.cls-133,.cls-134,.cls-135,.cls-136,.cls-137,.cls-138,.cls-139,.cls-140,.cls-141,.cls-142,.cls-143,.cls-144,.cls-145,.cls-18,.cls-19,.cls-20,.cls-21,.cls-22,.cls-23,.cls-24,.cls-25,.cls-26,.cls-27,.cls-28,.cls-30,.cls-31,.cls-32,.cls-33,.cls-34,.cls-35,.cls-36,.cls-37,.cls-38,.cls-39,.cls-40,.cls-41,.cls-42,.cls-43,.cls-44,.cls-45,.cls-46,.cls-47,.cls-48,.cls-49,.cls-50,.cls-51,.cls-52,.cls-53,.cls-54,.cls-55,.cls-56,.cls-57,.cls-58,.cls-59,.cls-60,.cls-61,.cls-62,.cls-63,.cls-64,.cls-65,.cls-66,.cls-67,.cls-68,.cls-69,.cls-70,.cls-71,.cls-72,.cls-73,.cls-74,.cls-75,.cls-76,.cls-77,.cls-78,.cls-79,.cls-80,.cls-81,.cls-82,.cls-83,.cls-84,.cls-85,.cls-86,.cls-87,.cls-88,.cls-89,.cls-90,.cls-91,.cls-92,.cls-93,.cls-94,.cls-95,.cls-96,.cls-97,.cls-98,.cls-99{mix-blend-mode:color-dodge;}.cls-18{fill:url(#radial-gradient);}.cls-19{fill:url(#radial-gradient-2);}.cls-20{fill:url(#radial-gradient-3);}.cls-21{fill:url(#radial-gradient-4);}.cls-22{fill:url(#radial-gradient-5);}.cls-23{fill:url(#radial-gradient-6);}.cls-24{fill:url(#radial-gradient-7);}.cls-25{fill:url(#radial-gradient-8);}.cls-26{fill:url(#radial-gradient-9);}.cls-27{fill:url(#radial-gradient-10);}.cls-28{fill:url(#radial-gradient-11);}.cls-29{fill:url(#radial-gradient-12);}.cls-30{fill:url(#radial-gradient-13);}.cls-31{fill:url(#radial-gradient-14);}.cls-32{fill:url(#radial-gradient-15);}.cls-33{fill:url(#radial-gradient-16);}.cls-34{fill:url(#radial-gradient-17);}.cls-35{fill:url(#radial-gradient-18);}.cls-36{fill:url(#radial-gradient-19);}.cls-37{fill:url(#radial-gradient-20);}.cls-38{fill:url(#radial-gradient-21);}.cls-39{fill:url(#radial-gradient-22);}.cls-40{fill:url(#radial-gradient-23);}.cls-41{fill:url(#radial-gradient-24);}.cls-42{fill:url(#radial-gradient-25);}.cls-43{fill:url(#radial-gradient-26);}.cls-44{fill:url(#radial-gradient-27);}.cls-45{fill:url(#radial-gradient-28);}.cls-46{fill:url(#radial-gradient-29);}.cls-47{fill:url(#radial-gradient-30);}.cls-48{fill:url(#radial-gradient-31);}.cls-49{fill:url(#radial-gradient-32);}.cls-50{fill:url(#radial-gradient-33);}.cls-51{fill:url(#radial-gradient-34);}.cls-52{fill:url(#radial-gradient-35);}.cls-53{fill:url(#radial-gradient-36);}.cls-54{fill:url(#radial-gradient-37);}.cls-55{fill:url(#radial-gradient-38);}.cls-56{fill:url(#radial-gradient-39);}.cls-57{fill:url(#radial-gradient-40);}.cls-58{fill:url(#radial-gradient-41);}.cls-59{fill:url(#radial-gradient-42);}.cls-60{fill:url(#radial-gradient-43);}.cls-61{fill:url(#radial-gradient-44);}.cls-62{fill:url(#radial-gradient-45);}.cls-63{fill:url(#radial-gradient-46);}.cls-64{fill:url(#radial-gradient-47);}.cls-65{fill:url(#radial-gradient-48);}.cls-66{fill:url(#radial-gradient-49);}.cls-67{fill:url(#radial-gradient-50);}.cls-68{fill:url(#radial-gradient-51);}.cls-69{fill:url(#radial-gradient-52);}.cls-70{fill:url(#radial-gradient-53);}.cls-71{fill:url(#radial-gradient-54);}.cls-72{fill:url(#radial-gradient-55);}.cls-73{fill:url(#radial-gradient-56);}.cls-74{fill:url(#radial-gradient-57);}.cls-75{fill:url(#radial-gradient-58);}.cls-76{fill:url(#radial-gradient-59);}.cls-77{fill:url(#radial-gradient-60);}.cls-78{fill:url(#radial-gradient-61);}.cls-79{fill:url(#radial-gradient-62);}.cls-80{fill:url(#radial-gradient-63);}.cls-81{fill:url(#radial-gradient-64);}.cls-82{fill:url(#radial-gradient-65);}.cls-83{fill:url(#radial-gradient-66);}.cls-84{fill:url(#radial-gradient-67);}.cls-85{fill:url(#radial-gradient-68);}.cls-86{fill:url(#radial-gradient-69);}.cls-87{fill:url(#radial-gradient-70);}.cls-88{fill:url(#radial-gradient-71);}.cls-89{fill:url(#radial-gradient-72);}.cls-90{fill:url(#radial-gradient-73);}.cls-91{fill:url(#radial-gradient-74);}.cls-92{fill:url(#radial-gradient-75);}.cls-93{fill:url(#radial-gradient-76);}.cls-94{fill:url(#radial-gradient-77);}.cls-95{fill:url(#radial-gradient-78);}.cls-96{fill:url(#radial-gradient-79);}.cls-97{fill:url(#radial-gradient-80);}.cls-98{fill:url(#radial-gradient-81);}.cls-99{fill:url(#radial-gradient-82);}.cls-100{fill:url(#radial-gradient-83);}.cls-101{fill:url(#radial-gradient-84);}.cls-102{fill:url(#radial-gradient-85);}.cls-103{fill:url(#radial-gradient-86);}.cls-104{fill:url(#radial-gradient-87);}.cls-105{fill:url(#radial-gradient-88);}.cls-106{fill:url(#radial-gradient-89);}.cls-107{fill:url(#radial-gradient-90);}.cls-108{fill:url(#radial-gradient-91);}.cls-109{fill:url(#radial-gradient-92);}.cls-110{fill:url(#radial-gradient-93);}.cls-111{fill:url(#radial-gradient-94);}.cls-112{fill:url(#radial-gradient-95);}.cls-113{fill:url(#radial-gradient-96);}.cls-114{fill:url(#radial-gradient-97);}.cls-115{fill:url(#radial-gradient-98);}.cls-116{fill:url(#radial-gradient-99);}.cls-117{fill:url(#radial-gradient-100);}.cls-118{fill:url(#radial-gradient-101);}.cls-119{fill:url(#radial-gradient-102);}.cls-120{fill:url(#radial-gradient-103);}.cls-121{fill:url(#radial-gradient-104);}.cls-122{fill:url(#radial-gradient-105);}.cls-123{fill:url(#radial-gradient-106);}.cls-124{fill:url(#radial-gradient-107);}.cls-125{fill:url(#radial-gradient-108);}.cls-126{fill:url(#radial-gradient-109);}.cls-127{fill:url(#radial-gradient-110);}.cls-128{fill:url(#radial-gradient-111);}.cls-129{fill:url(#radial-gradient-112);}.cls-130{fill:url(#radial-gradient-113);}.cls-131{fill:url(#radial-gradient-114);}.cls-132{fill:url(#radial-gradient-115);}.cls-133{fill:url(#radial-gradient-116);}.cls-134{fill:url(#radial-gradient-117);}.cls-135{fill:url(#radial-gradient-118);}.cls-136{fill:url(#radial-gradient-119);}.cls-137{fill:url(#radial-gradient-120);}.cls-138{fill:url(#radial-gradient-121);}.cls-139{fill:url(#radial-gradient-122);}.cls-140{fill:url(#radial-gradient-123);}.cls-141{fill:url(#radial-gradient-124);}.cls-142{fill:url(#radial-gradient-125);}.cls-143{fill:url(#radial-gradient-126);}.cls-144{fill:url(#radial-gradient-127);}.cls-145{fill:url(#radial-gradient-128);}</style><linearGradient id="linear-gradient" x1="18.95" y1="205.34" x2="59.08" y2="212.58" gradientUnits="userSpaceOnUse"><stop offset="0.09" stop-color="#deecbe"/><stop offset="0.34" stop-color="#ecf4d9" stop-opacity="0.58"/><stop offset="0.61" stop-color="#fafcf4" stop-opacity="0.17"/><stop offset="0.73" stop-color="#fff" stop-opacity="0"/></linearGradient><linearGradient id="linear-gradient-2" x1="82.59" y1="412.54" x2="166.8" y2="448.07" xlink:href="#linear-gradient"/><linearGradient id="linear-gradient-3" x1="149.7" y1="332.23" x2="164.18" y2="250.65" xlink:href="#linear-gradient"/><linearGradient id="linear-gradient-4" x1="200.45" y1="115.95" x2="353.54" y2="143.56" xlink:href="#linear-gradient"/><linearGradient id="linear-gradient-5" x1="227.88" y1="243.65" x2="272.2" y2="243.65" xlink:href="#linear-gradient"/><linearGradient id="linear-gradient-6" x1="68.38" y1="155.82" x2="132.03" y2="155.82" xlink:href="#linear-gradient"/><linearGradient id="linear-gradient-7" x1="100.82" y1="336.85" x2="191.2" y2="336.85" xlink:href="#linear-gradient"/><linearGradient id="linear-gradient-8" x1="767.51" y1="1803.61" x2="904.35" y2="1803.61" xlink:href="#linear-gradient"/><linearGradient id="linear-gradient-9" x1="44.08" y1="39.84" x2="167.97" y2="39.84" xlink:href="#linear-gradient"/><linearGradient id="linear-gradient-10" x1="231.6" y1="198.58" x2="268.05" y2="198.58" xlink:href="#linear-gradient"/><linearGradient id="linear-gradient-11" x1="83.11" y1="237.78" x2="209.9" y2="237.78" xlink:href="#linear-gradient"/><linearGradient id="linear-gradient-12" x1="88.77" y1="56.1" x2="171.66" y2="244.58" xlink:href="#linear-gradient"/><radialGradient id="radial-gradient" cx="11.06" cy="219.61" r="11.06" gradientUnits="userSpaceOnUse"><stop offset="0" stop-color="#fff" stop-opacity="0.77"/><stop offset="0.03" stop-color="#fff" stop-opacity="0.69"/><stop offset="0.11" stop-color="#fff" stop-opacity="0.48"/><stop offset="0.19" stop-color="#fff" stop-opacity="0.31"/><stop offset="0.27" stop-color="#fff" stop-opacity="0.17"/><stop offset="0.34" stop-color="#fff" stop-opacity="0.08"/><stop offset="0.41" stop-color="#fff" stop-opacity="0.02"/><stop offset="0.46" stop-color="#fff" stop-opacity="0"/></radialGradient><radialGradient id="radial-gradient-2" cx="30.47" cy="239.73" r="11.06" gradientUnits="userSpaceOnUse"><stop offset="0.03" stop-color="#fff"/><stop offset="0.04" stop-color="#f5f5f5"/><stop offset="0.12" stop-color="#c3c3c3"/><stop offset="0.2" stop-color="#949494"/><stop offset="0.28" stop-color="#6c6c6c"/><stop offset="0.37" stop-color="#4b4b4b"/><stop offset="0.46" stop-color="#2f2f2f"/><stop offset="0.56" stop-color="#1a1a1a"/><stop offset="0.67" stop-color="#0b0b0b"/><stop offset="0.8" stop-color="#030303"/><stop offset="1"/></radialGradient><radialGradient id="radial-gradient-3" cx="15.64" cy="232.82" r="11.06" xlink:href="#radial-gradient"/><radialGradient id="radial-gradient-4" cx="31.78" cy="247.51" r="11.06" xlink:href="#radial-gradient"/><radialGradient id="radial-gradient-5" cx="35.4" cy="268.45" r="11.06" xlink:href="#radial-gradient-2"/><radialGradient id="radial-gradient-6" cx="31.78" cy="279.51" r="11.06" xlink:href="#radial-gradient"/><radialGradient id="radial-gradient-7" cx="37.71" cy="297.17" r="11.06" xlink:href="#radial-gradient"/><radialGradient id="radial-gradient-8" cx="41.53" cy="327.64" r="11.06" xlink:href="#radial-gradient"/><radialGradient id="radial-gradient-9" cx="86.92" cy="338.04" r="11.06" xlink:href="#radial-gradient"/><radialGradient id="radial-gradient-10" cx="135.94" cy="329.16" r="11.06" xlink:href="#radial-gradient"/><radialGradient id="radial-gradient-11" cx="107.98" cy="360.17" r="11.06" xlink:href="#radial-gradient"/><radialGradient id="radial-gradient-12" cx="100.82" cy="338.04" r="11.06" gradientUnits="userSpaceOnUse"><stop offset="0.03" stop-color="#fff"/><stop offset="0.04" stop-color="#fff" stop-opacity="0.96"/><stop offset="0.12" stop-color="#fff" stop-opacity="0.76"/><stop offset="0.2" stop-color="#fff" stop-opacity="0.58"/><stop offset="0.28" stop-color="#fff" stop-opacity="0.43"/><stop offset="0.37" stop-color="#fff" stop-opacity="0.29"/><stop offset="0.46" stop-color="#fff" stop-opacity="0.19"/><stop offset="0.56" stop-color="#fff" stop-opacity="0.1"/><stop offset="0.67" stop-color="#fff" stop-opacity="0.04"/><stop offset="0.8" stop-color="#fff" stop-opacity="0.01"/><stop offset="1" stop-color="#fff" stop-opacity="0"/></radialGradient><radialGradient id="radial-gradient-13" cx="97.99" cy="404.4" r="11.06" xlink:href="#radial-gradient"/><radialGradient id="radial-gradient-14" cx="89.76" cy="439.27" r="11.06" xlink:href="#radial-gradient"/><radialGradient id="radial-gradient-15" cx="191.2" cy="294.45" r="11.06" xlink:href="#radial-gradient-2"/><radialGradient id="radial-gradient-16" cx="28.82" cy="190.99" r="11.06" xlink:href="#radial-gradient"/><radialGradient id="radial-gradient-17" cx="24.88" cy="151.52" r="11.06" xlink:href="#radial-gradient"/><radialGradient id="radial-gradient-18" cx="30.8" cy="111.06" r="11.06" xlink:href="#radial-gradient"/><radialGradient id="radial-gradient-19" cx="44.61" cy="68.63" r="11.06" xlink:href="#radial-gradient"/><radialGradient id="radial-gradient-20" cx="73.23" cy="36.06" r="11.06" xlink:href="#radial-gradient"/><radialGradient id="radial-gradient-21" cx="120.6" cy="12.64" r="11.06" xlink:href="#radial-gradient"/><radialGradient id="radial-gradient-22" cx="167.97" cy="11.06" r="11.06" xlink:href="#radial-gradient"/><radialGradient id="radial-gradient-23" cx="227.25" cy="25.41" r="11.06" xlink:href="#radial-gradient"/><radialGradient id="radial-gradient-24" cx="274.29" cy="62.91" r="11.06" xlink:href="#radial-gradient"/><radialGradient id="radial-gradient-25" cx="298.63" cy="126.07" r="11.06" xlink:href="#radial-gradient"/><radialGradient id="radial-gradient-26" cx="298.63" cy="157.18" r="11.06" xlink:href="#radial-gradient"/><radialGradient id="radial-gradient-27" cx="291.85" cy="96.09" r="11.06" xlink:href="#radial-gradient"/><radialGradient id="radial-gradient-28" cx="292.39" cy="188.3" r="11.06" xlink:href="#radial-gradient"/><radialGradient id="radial-gradient-29" cx="268.05" cy="250.79" r="11.06" xlink:href="#radial-gradient"/><radialGradient id="radial-gradient-30" cx="254.97" cy="267.69" r="11.06" xlink:href="#radial-gradient-2"/><radialGradient id="radial-gradient-31" cx="261.14" cy="316.58" r="11.06" xlink:href="#radial-gradient"/><radialGradient id="radial-gradient-32" cx="259.32" cy="291.41" r="11.06" xlink:href="#radial-gradient"/><radialGradient id="radial-gradient-33" cx="149.49" cy="379.24" r="11.06" xlink:href="#radial-gradient"/><radialGradient id="radial-gradient-34" cx="124.47" cy="439.27" r="11.06" xlink:href="#radial-gradient"/><radialGradient id="radial-gradient-35" cx="227.88" cy="357.67" r="11.06" xlink:href="#radial-gradient"/><radialGradient id="radial-gradient-36" cx="266.23" cy="401.37" r="11.06" xlink:href="#radial-gradient"/><radialGradient id="radial-gradient-37" cx="187.78" cy="439.27" r="11.06" xlink:href="#radial-gradient"/><radialGradient id="radial-gradient-38" cx="227.88" cy="415.47" r="11.06" xlink:href="#radial-gradient"/><radialGradient id="radial-gradient-39" cx="198.84" cy="226.28" r="11.06" xlink:href="#radial-gradient-2"/><radialGradient id="radial-gradient-40" cx="180.14" cy="200.23" r="11.06" xlink:href="#radial-gradient-2"/><radialGradient id="radial-gradient-41" cx="209.9" cy="262.47" r="11.06" xlink:href="#radial-gradient-2"/><radialGradient id="radial-gradient-42" cx="229.86" cy="301.09" r="11.06" xlink:href="#radial-gradient-2"/><radialGradient id="radial-gradient-43" cx="290.17" cy="370.85" r="11.06" xlink:href="#radial-gradient"/><radialGradient id="radial-gradient-44" cx="273.23" cy="346.61" r="11.06" xlink:href="#radial-gradient"/><radialGradient id="radial-gradient-45" cx="327.01" cy="404.4" r="11.06" xlink:href="#radial-gradient"/><radialGradient id="radial-gradient-46" cx="283.15" cy="442.15" r="11.06" xlink:href="#radial-gradient"/><radialGradient id="radial-gradient-47" cx="60.22" cy="336.88" r="9.24" xlink:href="#radial-gradient"/><radialGradient id="radial-gradient-48" cx="168.77" cy="316.58" r="9.24" gradientUnits="userSpaceOnUse"><stop offset="0" stop-color="#fff"/><stop offset="0.02" stop-color="#f0f0f0"/><stop offset="0.12" stop-color="#b1b1b1"/><stop offset="0.21" stop-color="#7b7b7b"/><stop offset="0.3" stop-color="#4f4f4f"/><stop offset="0.38" stop-color="#2d2d2d"/><stop offset="0.47" stop-color="#141414"/><stop offset="0.54" stop-color="#050505"/><stop offset="0.6"/></radialGradient><radialGradient id="radial-gradient-49" cx="24.34" cy="134.27" r="9.24" xlink:href="#radial-gradient"/><radialGradient id="radial-gradient-50" cx="88.75" cy="165.95" r="9.24" xlink:href="#radial-gradient-48"/><radialGradient id="radial-gradient-51" cx="82.33" cy="173.68" r="9.24" xlink:href="#radial-gradient-48"/><radialGradient id="radial-gradient-52" cx="91.05" cy="179.93" r="9.24" xlink:href="#radial-gradient-48"/><radialGradient id="radial-gradient-53" cx="102.56" cy="177.79" r="9.24" xlink:href="#radial-gradient-48"/><radialGradient id="radial-gradient-54" cx="111.8" cy="172.86" r="9.24" xlink:href="#radial-gradient-48"/><radialGradient id="radial-gradient-55" cx="239.1" cy="176.2" r="9.24" xlink:href="#radial-gradient-48"/><radialGradient id="radial-gradient-56" cx="266.23" cy="162.58" r="9.24" xlink:href="#radial-gradient-48"/><radialGradient id="radial-gradient-57" cx="151.73" cy="202.06" r="9.24" xlink:href="#radial-gradient-48"/><radialGradient id="radial-gradient-58" cx="40.67" cy="291.26" r="9.24" xlink:href="#radial-gradient-48"/><radialGradient id="radial-gradient-59" cx="78.7" cy="273.51" r="9.24" xlink:href="#radial-gradient-48"/><radialGradient id="radial-gradient-60" cx="44.64" cy="259.21" r="9.24" xlink:href="#radial-gradient-48"/><radialGradient id="radial-gradient-61" cx="34.12" cy="262.47" r="9.24" xlink:href="#radial-gradient-48"/><radialGradient id="radial-gradient-62" cx="28.82" cy="262.15" r="9.24" xlink:href="#radial-gradient"/><radialGradient id="radial-gradient-63" cx="44.04" cy="282.75" r="9.24" xlink:href="#radial-gradient-48"/><radialGradient id="radial-gradient-64" cx="61.83" cy="282.75" r="9.24" xlink:href="#radial-gradient-48"/><radialGradient id="radial-gradient-65" cx="60.22" cy="265.64" r="9.24" xlink:href="#radial-gradient-48"/><radialGradient id="radial-gradient-66" cx="76.93" cy="289.82" r="9.24" xlink:href="#radial-gradient-48"/><radialGradient id="radial-gradient-67" cx="55.67" cy="292.51" r="9.24" xlink:href="#radial-gradient-48"/><radialGradient id="radial-gradient-68" cx="72.57" cy="318.1" r="9.24" xlink:href="#radial-gradient"/><radialGradient id="radial-gradient-69" cx="108.38" cy="303" r="9.24" xlink:href="#radial-gradient"/><radialGradient id="radial-gradient-70" cx="35.88" cy="312.24" r="9.24" xlink:href="#radial-gradient"/><radialGradient id="radial-gradient-71" cx="128.28" cy="273.51" r="9.24" xlink:href="#radial-gradient-48"/><radialGradient id="radial-gradient-72" cx="109.05" cy="233.31" r="9.24" xlink:href="#radial-gradient-48"/><radialGradient id="radial-gradient-73" cx="61.02" cy="194.08" r="9.24" xlink:href="#radial-gradient-48"/><radialGradient id="radial-gradient-74" cx="83.11" cy="220.96" r="9.24" xlink:href="#radial-gradient-48"/><radialGradient id="radial-gradient-75" cx="68.38" cy="248.68" r="9.24" xlink:href="#radial-gradient-48"/><radialGradient id="radial-gradient-76" cx="55.67" cy="233.31" r="9.24" xlink:href="#radial-gradient-48"/><radialGradient id="radial-gradient-77" cx="24.88" cy="219.35" r="9.24" xlink:href="#radial-gradient-48"/><radialGradient id="radial-gradient-78" cx="37.71" cy="237.78" r="9.24" xlink:href="#radial-gradient-48"/><radialGradient id="radial-gradient-79" cx="53.28" cy="237.29" r="9.24" xlink:href="#radial-gradient-48"/><radialGradient id="radial-gradient-80" cx="47.11" cy="237.47" r="9.24" xlink:href="#radial-gradient-48"/><radialGradient id="radial-gradient-81" cx="55.39" cy="219.61" r="9.24" xlink:href="#radial-gradient-48"/><radialGradient id="radial-gradient-82" cx="142.95" cy="115.01" r="9.24" xlink:href="#radial-gradient-48"/><radialGradient id="radial-gradient-83" cx="137.52" cy="143.13" r="9.24" xlink:href="#radial-gradient-48"/><radialGradient id="radial-gradient-84" cx="225.43" cy="86.06" r="9.24" xlink:href="#radial-gradient-48"/><radialGradient id="radial-gradient-85" cx="186.71" cy="79.69" r="9.24" xlink:href="#radial-gradient-48"/><radialGradient id="radial-gradient-86" cx="266.23" cy="126.07" r="9.24" xlink:href="#radial-gradient-48"/><radialGradient id="radial-gradient-87" cx="240.84" cy="56.31" r="9.24" xlink:href="#radial-gradient-48"/><radialGradient id="radial-gradient-88" cx="158.73" cy="65.55" r="9.24" xlink:href="#radial-gradient-48"/><radialGradient id="radial-gradient-89" cx="191.2" cy="36.06" r="9.24" xlink:href="#radial-gradient-48"/><radialGradient id="radial-gradient-90" cx="111.8" cy="122.12" r="9.24" xlink:href="#radial-gradient-48"/><radialGradient id="radial-gradient-91" cx="99.81" cy="112.88" r="9.24" xlink:href="#radial-gradient-48"/><radialGradient id="radial-gradient-92" cx="70.26" cy="90.76" r="9.24" xlink:href="#radial-gradient-48"/><radialGradient id="radial-gradient-93" cx="104.73" cy="34.24" r="9.24" xlink:href="#radial-gradient-48"/><radialGradient id="radial-gradient-94" cx="55.39" cy="79.69" r="9.24" xlink:href="#radial-gradient-48"/><radialGradient id="radial-gradient-95" cx="173.87" cy="190.99" r="9.24" xlink:href="#radial-gradient-48"/><radialGradient id="radial-gradient-96" cx="239.1" cy="156.71" r="9.24" xlink:href="#radial-gradient-48"/><radialGradient id="radial-gradient-97" cx="216.19" cy="194.68" r="9.24" xlink:href="#radial-gradient-48"/><radialGradient id="radial-gradient-98" cx="50.98" cy="168.55" r="9.24" xlink:href="#radial-gradient-48"/><radialGradient id="radial-gradient-99" cx="283.15" cy="189.17" r="9.24" xlink:href="#radial-gradient-48"/><radialGradient id="radial-gradient-100" cx="268.05" cy="196.74" r="9.24" xlink:href="#radial-gradient-48"/><radialGradient id="radial-gradient-101" cx="262.03" cy="214" r="9.24" xlink:href="#radial-gradient-48"/><radialGradient id="radial-gradient-102" cx="248.34" cy="224.07" r="9.24" xlink:href="#radial-gradient-48"/><radialGradient id="radial-gradient-103" cx="250.08" cy="165.95" r="9.24" xlink:href="#radial-gradient-48"/><radialGradient id="radial-gradient-104" cx="279.11" cy="205.98" r="9.24" xlink:href="#radial-gradient-48"/><radialGradient id="radial-gradient-105" cx="220.62" cy="230.2" r="9.24" xlink:href="#radial-gradient-48"/><radialGradient id="radial-gradient-106" cx="272.2" cy="219.61" r="9.24" xlink:href="#radial-gradient-48"/><radialGradient id="radial-gradient-107" cx="240.84" cy="199.36" r="9.24" xlink:href="#radial-gradient-48"/><radialGradient id="radial-gradient-108" cx="231.6" cy="220.96" r="9.24" xlink:href="#radial-gradient-48"/><radialGradient id="radial-gradient-109" cx="250.08" cy="242.56" r="9.24" xlink:href="#radial-gradient-48"/><radialGradient id="radial-gradient-110" cx="238.97" cy="248.99" r="9.24" xlink:href="#radial-gradient-48"/><radialGradient id="radial-gradient-111" cx="227.88" cy="246.33" r="9.24" xlink:href="#radial-gradient-48"/><radialGradient id="radial-gradient-112" cx="99.14" cy="168.55" r="9.24" xlink:href="#radial-gradient-48"/><radialGradient id="radial-gradient-113" cx="68.38" cy="138.78" r="9.24" xlink:href="#radial-gradient-48"/><radialGradient id="radial-gradient-114" cx="35.94" cy="148.98" r="9.24" xlink:href="#radial-gradient-48"/><radialGradient id="radial-gradient-115" cx="99.14" cy="138.78" r="9.24" xlink:href="#radial-gradient-48"/><radialGradient id="radial-gradient-116" cx="42.82" cy="164.44" r="9.24" xlink:href="#radial-gradient-48"/><radialGradient id="radial-gradient-117" cx="36.56" cy="162.58" r="9.24" xlink:href="#radial-gradient-48"/><radialGradient id="radial-gradient-118" cx="42.82" cy="155.19" r="9.24" xlink:href="#radial-gradient-48"/><radialGradient id="radial-gradient-119" cx="32.62" cy="165.95" r="9.24" xlink:href="#radial-gradient"/><radialGradient id="radial-gradient-120" cx="36.56" cy="176.2" r="9.24" xlink:href="#radial-gradient"/><radialGradient id="radial-gradient-121" cx="121.04" cy="148.98" r="9.24" xlink:href="#radial-gradient-48"/><radialGradient id="radial-gradient-122" cx="131.4" cy="160.16" r="9.24" xlink:href="#radial-gradient-48"/><radialGradient id="radial-gradient-123" cx="61.02" cy="226.65" r="9.24" xlink:href="#radial-gradient-48"/><radialGradient id="radial-gradient-124" cx="133.71" cy="175.19" r="9.24" xlink:href="#radial-gradient-48"/><radialGradient id="radial-gradient-125" cx="113.97" cy="196.74" r="9.24" xlink:href="#radial-gradient-48"/><radialGradient id="radial-gradient-126" cx="86.17" cy="203.32" r="9.24" xlink:href="#radial-gradient-48"/><radialGradient id="radial-gradient-127" cx="70.26" cy="185.44" r="9.24" xlink:href="#radial-gradient-48"/><radialGradient id="radial-gradient-128" cx="64.63" cy="162.58" r="9.24" xlink:href="#radial-gradient-48"/></defs><title>artificial intelligence</title><g class="cls-1"><g id="artifical_intelligence" data-name="artifical intelligence"><polyline class="cls-2" points="81.81 461.98 89.76 439.27 97.98 404.4 107.98 360.17 100.82 338.05 86.92 338.05 60.22 336.88 41.53 327.64 35.4 312.24 37.7 297.17 31.79 279.51 35.4 268.45 28.82 262.47 28.82 259.21 31.79 247.75 30.47 239.73 15.64 233.31 11.06 219.61 28.82 190.99 36.56 176.2 32.62 165.95 24.88 151.52 24.34 134.27 30.8 111.57 44.08 68.63 73.23 36.06 120.6 12.64 167.97 11.06 227.25 25.41 274.29 62.91 291.9 96.28 298.63 126.07 298.63 158.53 293.05 188.3 268.05 250.79 259.99 291.75 261.14 316.58 273.15 346.61 290.17 370.85 327.01 404.4 376.6 442.57"/><polyline class="cls-3" points="35.94 148.98 70.27 90.76 99.14 168.55 225.43 86.06 120.6 12.64 121.04 148.98"/><polyline class="cls-3" points="24.88 219.35 61.02 194.08 83.11 220.96"/><polyline class="cls-3" points="68.38 248.68 108.38 303 109.05 233.31 191.2 294.45"/><polyline class="cls-3" points="41.53 327.64 37.7 297.17 61.02 338.05 209.9 262.64"/><polyline class="cls-3" points="97.98 404.4 124.47 439.27 227.88 415.47 149.49 379.24 259.32 291.41"/><polyline class="cls-3" points="327.01 404.4 283.15 442.15 187.78 439.27"/><line class="cls-3" x1="89.76" y1="439.27" x2="150.2" y2="465.14"/><line class="cls-3" x1="107.98" y1="360.17" x2="135.94" y2="329.16"/><polyline class="cls-3" points="227.88 246.33 231.6 220.96 272.2 219.61"/><polyline class="cls-3" points="274.29 65.56 298.63 126.07 239.1 156.71 142.94 115.01"/><polyline class="cls-3" points="227.25 25.41 298.63 126.07 186.71 79.69 73.23 36.06"/><polyline class="cls-4" points="120.6 12.64 187.05 79.69 227.25 25.41"/><polyline class="cls-4" points="158.73 65.56 173.87 190.99 274.29 62.91"/><path class="cls-4" d="M537.16,1528" transform="translate(-506.37 -1416.47)"/><polyline class="cls-4" points="83.11 220.96 180.14 200.23 133.71 175.19"/><polyline class="cls-4" points="28.82 190.99 50.98 168.55 30.8 111.57"/><polyline class="cls-4" points="137.52 143.89 209.9 262.64 68.38 248.68 128.28 273.5"/><polyline class="cls-4" points="298.63 126.07 266.23 162.58 187.05 79.69 240.84 56.31"/><polyline class="cls-4" points="101.4 340.23 149.49 379.24 124.47 439.27 229.86 301.09"/><polyline class="cls-4" points="131.4 160.16 216.19 194.69 198.84 226.28 113.97 196.74 109.05 233.31 53.28 237.47"/><polyline class="cls-4" points="231.6 220.96 216.19 194.69 225.43 86.06"/><polyline class="cls-4" points="55.39 292.51 72.57 318.1 76.93 289.82"/><polyline class="cls-4" points="37.7 297.17 72.57 318.1 41.53 327.64"/><line class="cls-4" x1="290.17" y1="370.85" x2="279.11" y2="481.38"/><polyline class="cls-4" points="55.39 219.61 24.88 219.35 65.02 162.84"/><polyline class="cls-4" points="99.14 138.78 142.94 115.01 70.27 90.76 191.2 36.06 73.23 36.06 99.81 112.88 24.34 134.27"/><polyline class="cls-4" points="97.98 404.4 187.78 439.27 261.14 316.58 266.23 401.37"/><polyline class="cls-4" points="202.26 472.5 227.88 415.47 350.12 474.48 327.01 405.73 149.49 379.24 227.88 357.67 168.77 316.58"/><polyline class="cls-4" points="191.2 294.45 227.88 357.67 254.97 267.69"/><polyline class="cls-4" points="135.94 329.16 128.28 273.5 209.9 262.64 109.05 233.31"/><path class="cls-4" d="M585.07,1690" transform="translate(-506.37 -1416.47)"/><polyline class="cls-5" points="81.81 461.98 89.76 439.27 97.98 404.4 107.98 360.17 100.82 338.05 86.92 338.05 60.22 336.88 41.53 327.64 35.4 312.24 37.7 297.17 31.79 279.51 35.4 268.45 28.82 262.47 28.82 259.21 31.79 247.75 30.47 239.73 15.64 233.31 11.06 219.61 28.82 190.99 36.56 176.2 32.62 165.95 24.88 151.52 24.34 134.27 30.8 111.57 44.08 68.63 73.23 36.06 120.6 12.64 167.97 11.06 227.25 25.41 274.29 62.91 291.9 96.28 298.63 126.07 298.63 158.53 293.05 188.3 268.05 250.79 259.99 291.75 261.14 316.58 273.15 346.61 290.17 370.85 327.01 404.4 376.6 442.57"/><polyline class="cls-5" points="36.56 176.2 42.82 164.44 36.56 162.58 32.62 165.95"/><polyline class="cls-5" points="11.06 219.61 24.88 219.35 55.67 233.31 53.28 237.47 38.06 237.47 30.47 239.73"/><polyline class="cls-5" points="15.64 233.31 24.88 219.35 50.98 168.55 65.02 162.84 68.38 138.78 99.14 138.78 121.04 148.98 132.03 160.91 133.71 175.19 113.97 196.74 86.17 203.32 70.27 185.44 61.02 194.08 55.39 219.61 61.02 226.92 55.67 233.31"/><polyline class="cls-5" points="28.82 262.47 34.12 262.47 44.64 259.21 60.22 265.64 78.7 273.5 61.83 282.75 44.04 282.75 31.79 279.51"/><path class="cls-5" d="M618.17,1589.33" transform="translate(-506.37 -1416.47)"/><polyline class="cls-5" points="99.14 138.78 111.8 172.86 121.04 148.98 137.52 143.89 142.94 115.01"/><path class="cls-5" d="M571,1579.05" transform="translate(-506.37 -1416.47)"/><polyline class="cls-5" points="64.63 162.58 81.81 173.68 91.05 179.93 102.56 177.79 111.8 172.86 99.14 168.55 88.75 165.95 82.33 173.68 70.27 185.44"/><polyline class="cls-5" points="133.71 175.19 173.87 190.99 216.19 194.69 239.1 156.71 266.23 126.07 240.84 56.31"/><polyline class="cls-5" points="42.82 155.19 36.56 162.58 35.94 148.98"/><polyline class="cls-5" points="36.56 162.58 24.88 151.52 35.94 148.98 42.82 155.19 42.82 164.44"/><line class="cls-5" x1="61.03" y1="194.08" x2="65.06" y2="162.58"/><polyline class="cls-5" points="47.1 237.47 34.12 262.47 31.66 247.02"/><polyline class="cls-5" points="52.59 237.29 68.38 248.68 78.7 273.5 108.38 303 73.09 318.1 61.02 338.05"/><polyline class="cls-5" points="61.02 226.92 83.11 220.96 86.17 203.32 91.05 179.93 113.97 196.74 102.56 177.79 133.71 175.19 111.8 172.86"/><polyline class="cls-5" points="151.72 202.06 128.28 273.5 198.84 226.28"/><polyline class="cls-5" points="191.2 294.45 128.28 273.5 109.05 233.31 68.38 248.68"/><polyline class="cls-5" points="168.77 316.58 128.28 273.5 108.38 303 135.94 329.16"/><polyline class="cls-5" points="86.92 338.05 108.38 303 100.82 338.05 135.94 329.16 168.77 316.58 191.2 294.45 209.9 262.64 198.84 226.28 180.14 200.23 151.72 202.06 109.05 233.31 83.11 220.96"/><polyline class="cls-5" points="32.14 280.58 40.77 291.38 55.39 292.51 76.93 289.82 78.7 273.5 35.4 268.45"/><polyline class="cls-5" points="111.8 122.12 158.73 65.56 191.2 36.06 167.97 11.06 104.73 34.24 119.04 13.41"/><polyline class="cls-5" points="35.94 148.98 55.39 79.69 30.8 111.57"/><polyline class="cls-5" points="24.34 134.27 68.38 138.78 88.75 165.95 99.14 138.78 111.8 122.12 142.94 115.01 187.05 79.69 225.43 86.06 240.84 56.31 274.29 62.91"/><polyline class="cls-5" points="73.23 36.06 68.38 138.78 158.73 65.56"/><polygon class="cls-5" points="240.84 199.36 231.6 220.96 220.62 230.2 227.88 246.33 239.1 248.99 250.08 242.56 272.2 219.61 279.11 205.98 283.15 189.17 266.23 162.58 250.08 165.95 239.1 176.2 240.84 199.36"/><polyline class="cls-5" points="202.26 472.5 157.52 472.5 124.47 439.27 107.98 360.17 149.49 379.24 229.86 301.09 268.05 250.79 250.08 242.56 259.99 291.75 227.88 415.47 187.78 439.27 126.6 481.38"/><polyline class="cls-5" points="89.76 439.27 227.88 357.67 187.78 439.27 149.49 379.24 135.94 329.16 227.88 357.67 290.17 370.85"/><polyline class="cls-5" points="327.01 405.73 279.11 479.41 227.88 415.47 266.23 401.37 273.15 346.61"/><polyline class="cls-5" points="386.8 452.44 266.23 401.37 227.88 357.67 229.86 301.09 209.9 262.64 255.16 267.77 227.88 246.33"/><polyline class="cls-5" points="229.86 301.09 191.2 294.45 149.49 379.24"/><polyline class="cls-5" points="191.2 36.06 227.25 25.41 240.84 56.31 191.2 36.06 187.05 79.69 239.1 156.71 239.1 176.2 268.05 196.74 240.84 199.36 262.96 214 231.6 220.96 248.34 224.07 262.03 213.71 268.05 196.74 250.08 166.96"/><polyline class="cls-5" points="291.9 96.28 225.43 86.06 298.63 126.07"/><polyline class="cls-5" points="227.88 246.33 248.34 224.07 250.08 242.56"/><polyline class="cls-5" points="113.97 196.74 151.72 202.06 173.87 190.99 187.05 79.69 266.23 126.07 298.63 157.18 266.23 162.58 266.23 127.44"/><polyline class="cls-5" points="180.14 200.23 220.62 230.2 216.19 194.69 187.05 79.69 99.81 112.88"/><polyline class="cls-5" points="283.15 190.12 293.05 188.3 272.2 219.61 262.03 213.71 279.11 205.98 268.05 196.74 283.15 189.17 250.08 165.95"/><line class="cls-5" x1="272.2" y1="219.61" x2="268.05" y2="250.79"/><polyline class="cls-5" points="137.52 143.89 173.87 190.99 142.94 115.01"/><polyline class="cls-5" points="104.73 34.24 44.08 68.63 55.39 79.69 158.73 65.56 104.73 34.24 111.8 122.12 55.39 79.69"/><polygon class="cls-6" points="36.56 176.2 28.82 190.99 11.06 219.61 15.64 233.31 30.47 239.73 24.88 219.35 36.56 176.2"/><polyline class="cls-5" points="100.82 338.05 86.92 338.05 60.22 336.88 41.53 327.64 35.4 312.24 37.7 297.17 31.79 279.51 35.4 268.45 28.82 262.47 28.82 259.21 31.79 247.75"/><polygon class="cls-7" points="81.81 461.98 89.76 439.27 97.98 404.4 107.98 360.17 113.97 435.8 78.7 473.98 81.81 461.98"/><polygon class="cls-8" points="100.82 338.05 135.94 329.16 168.77 316.58 191.2 294.45 209.9 262.64 173.87 299.06 100.82 338.05"/><polygon class="cls-9" points="186.71 79.69 239.1 156.71 266.23 126.07 186.71 79.69"/><polygon class="cls-10" points="227.88 246.33 254.97 267.69 272.2 219.61 250.08 242.56 239.1 248.99 227.88 246.33"/><polygon class="cls-11" points="68.38 138.78 88.75 165.95 99.14 168.55 111.8 172.86 132.03 160.91 121.04 148.98 99.14 138.78 68.38 138.78"/><polygon class="cls-12" points="191.2 294.45 149.49 379.24 107.98 360.17 100.82 338.05 135.94 329.16 168.77 316.58 191.2 294.45"/><path class="cls-13" d="M767.51,1733s3.83,84.26,5.09,84.79l131.75,56.33L880,1857.06l-46.63-36.19-36.84-33.55-17-24.24Z" transform="translate(-506.37 -1416.47)"/><polygon class="cls-14" points="44.08 68.63 73.23 36.06 120.6 12.64 167.97 11.06 104.89 34.35 44.08 68.63"/><polygon class="cls-15" points="231.6 220.96 262.03 214 268.05 196.74 239.1 176.2 240.84 199.36 231.6 220.96"/><polygon class="cls-16" points="83.11 220.96 151.72 202.06 209.9 262.64 128.28 273.5 109.09 232.97 83.11 220.96"/><polyline class="cls-17" points="81.81 461.98 89.76 439.27 97.98 404.4 107.98 360.17 100.82 338.05 86.92 338.05 60.22 336.88 41.53 327.64 35.4 312.24 37.7 297.17 31.79 279.51 35.4 268.45 28.82 262.47 28.82 259.21 31.79 247.75 30.47 239.73 15.64 233.31 11.06 219.61 28.82 190.99 36.56 176.2 32.62 165.95 24.88 151.52 24.34 134.27 30.8 111.57 44.08 68.63 73.23 36.06 120.6 12.64 167.97 11.06 227.25 25.41 274.29 62.91 291.9 96.28 298.63 126.07 298.63 158.53 293.05 188.3 268.05 250.79 259.99 291.75 261.14 316.58 273.15 346.61 290.17 370.85 327.01 404.4 376.6 442.57"/><circle class="cls-18" cx="11.06" cy="219.61" r="11.06"/><circle class="cls-20" cx="15.64" cy="232.82" r="11.06"/><circle class="cls-21" cx="31.78" cy="247.51" r="11.06"/><circle class="cls-23" cx="31.78" cy="279.51" r="11.06"/><circle class="cls-24" cx="37.71" cy="297.17" r="11.06"/><circle class="cls-25" cx="41.53" cy="327.64" r="11.06"/><circle class="cls-26" cx="86.92" cy="338.04" r="11.06"/><circle class="cls-27" cx="135.94" cy="329.16" r="11.06"/><circle class="cls-28" cx="107.98" cy="360.17" r="11.06"/><circle class="cls-29" cx="100.82" cy="338.04" r="11.06"/><circle class="cls-30" cx="97.99" cy="404.4" r="11.06"/><circle class="cls-31" cx="89.76" cy="439.27" r="11.06"/><circle class="cls-32" cx="191.2" cy="294.45" r="11.06"/><circle class="cls-33" cx="28.82" cy="190.99" r="11.06"/><circle class="cls-34" cx="24.88" cy="151.52" r="11.06"/><circle class="cls-35" cx="30.8" cy="111.06" r="11.06"/><circle class="cls-36" cx="44.61" cy="68.63" r="11.06"/><circle class="cls-37" cx="73.23" cy="36.06" r="11.06"/><circle class="cls-38" cx="120.6" cy="12.64" r="11.06"/><circle class="cls-39" cx="167.97" cy="11.06" r="11.06"/><circle class="cls-40" cx="227.25" cy="25.41" r="11.06"/><circle class="cls-41" cx="274.29" cy="62.91" r="11.06"/><circle class="cls-42" cx="298.63" cy="126.07" r="11.06"/><circle class="cls-43" cx="298.63" cy="157.18" r="11.06"/><circle class="cls-44" cx="291.85" cy="96.09" r="11.06"/><circle class="cls-45" cx="292.39" cy="188.3" r="11.06"/><circle class="cls-46" cx="268.05" cy="250.79" r="11.06"/><circle class="cls-48" cx="261.14" cy="316.58" r="11.06"/><circle class="cls-49" cx="259.32" cy="291.41" r="11.06"/><circle class="cls-50" cx="149.49" cy="379.24" r="11.06"/><circle class="cls-51" cx="124.47" cy="439.27" r="11.06"/><circle class="cls-52" cx="227.88" cy="357.67" r="11.06"/><circle class="cls-53" cx="266.23" cy="401.37" r="11.06"/><circle class="cls-54" cx="187.78" cy="439.27" r="11.06"/><circle class="cls-55" cx="227.88" cy="415.47" r="11.06"/><circle class="cls-56" cx="198.84" cy="226.28" r="11.06"/><circle class="cls-57" cx="180.14" cy="200.23" r="11.06"/><circle class="cls-58" cx="209.9" cy="262.47" r="11.06"/><circle class="cls-59" cx="229.86" cy="301.09" r="11.06"/><circle class="cls-60" cx="290.17" cy="370.85" r="11.06"/><circle class="cls-61" cx="273.23" cy="346.61" r="11.06"/><circle class="cls-62" cx="327.01" cy="404.4" r="11.06"/><circle class="cls-63" cx="283.15" cy="442.15" r="11.06"/><circle class="cls-64" cx="60.22" cy="336.88" r="9.24"/><circle class="cls-65" cx="168.77" cy="316.58" r="9.24"/><circle class="cls-66" cx="24.34" cy="134.27" r="9.24"/><circle class="cls-67" cx="88.75" cy="165.95" r="9.24"/><circle class="cls-68" cx="82.33" cy="173.68" r="9.24"/><circle class="cls-69" cx="91.05" cy="179.93" r="9.24"/><circle class="cls-70" cx="102.56" cy="177.79" r="9.24"/><circle class="cls-71" cx="111.8" cy="172.86" r="9.24"/><circle class="cls-72" cx="239.1" cy="176.2" r="9.24"/><circle class="cls-73" cx="266.23" cy="162.58" r="9.24"/><circle class="cls-74" cx="151.73" cy="202.06" r="9.24"/><circle class="cls-76" cx="78.7" cy="273.51" r="9.24"/><circle class="cls-77" cx="44.64" cy="259.21" r="9.24"/><circle class="cls-79" cx="28.82" cy="262.15" r="9.24"/><circle class="cls-80" cx="44.04" cy="282.75" r="9.24"/><circle class="cls-81" cx="61.83" cy="282.75" r="9.24"/><circle class="cls-82" cx="60.22" cy="265.64" r="9.24"/><circle class="cls-83" cx="76.93" cy="289.82" r="9.24"/><circle class="cls-84" cx="55.67" cy="292.51" r="9.24"/><circle class="cls-85" cx="72.57" cy="318.1" r="9.24"/><circle class="cls-86" cx="108.38" cy="303" r="9.24"/><circle class="cls-87" cx="35.88" cy="312.24" r="9.24"/><circle class="cls-88" cx="128.28" cy="273.51" r="9.24"/><circle class="cls-89" cx="109.05" cy="233.31" r="9.24"/><circle class="cls-90" cx="61.02" cy="194.08" r="9.24"/><circle class="cls-91" cx="83.11" cy="220.96" r="9.24"/><circle class="cls-92" cx="68.38" cy="248.68" r="9.24"/><circle class="cls-93" cx="55.67" cy="233.31" r="9.24"/><circle class="cls-94" cx="24.88" cy="219.35" r="9.24"/><circle class="cls-95" cx="37.71" cy="237.78" r="9.24"/><circle class="cls-96" cx="53.28" cy="237.29" r="9.24"/><circle class="cls-97" cx="47.11" cy="237.47" r="9.24"/><circle class="cls-98" cx="55.39" cy="219.61" r="9.24"/><circle class="cls-99" cx="142.95" cy="115.01" r="9.24"/><circle class="cls-100" cx="137.52" cy="143.13" r="9.24"/><circle class="cls-101" cx="225.43" cy="86.06" r="9.24"/><circle class="cls-102" cx="186.71" cy="79.69" r="9.24"/><circle class="cls-103" cx="266.23" cy="126.07" r="9.24"/><circle class="cls-104" cx="240.84" cy="56.31" r="9.24"/><circle class="cls-105" cx="158.73" cy="65.55" r="9.24"/><circle class="cls-106" cx="191.2" cy="36.06" r="9.24"/><circle class="cls-107" cx="111.8" cy="122.12" r="9.24"/><circle class="cls-108" cx="99.81" cy="112.88" r="9.24"/><circle class="cls-109" cx="70.26" cy="90.76" r="9.24"/><circle class="cls-110" cx="104.73" cy="34.24" r="9.24"/><circle class="cls-111" cx="55.39" cy="79.69" r="9.24"/><circle class="cls-112" cx="173.87" cy="190.99" r="9.24"/><circle class="cls-113" cx="239.1" cy="156.71" r="9.24"/><circle class="cls-114" cx="216.19" cy="194.68" r="9.24"/><circle class="cls-115" cx="50.98" cy="168.55" r="9.24"/><circle class="cls-116" cx="283.15" cy="189.17" r="9.24"/><circle class="cls-117" cx="268.05" cy="196.74" r="9.24"/><circle class="cls-118" cx="262.03" cy="214" r="9.24"/><circle class="cls-119" cx="248.34" cy="224.07" r="9.24"/><circle class="cls-120" cx="250.08" cy="165.95" r="9.24"/><circle class="cls-122" cx="220.62" cy="230.2" r="9.24"/><circle class="cls-124" cx="240.84" cy="199.36" r="9.24"/><circle class="cls-125" cx="231.6" cy="220.96" r="9.24"/><circle class="cls-126" cx="250.08" cy="242.56" r="9.24"/><circle class="cls-127" cx="238.97" cy="248.99" r="9.24"/><circle class="cls-128" cx="227.88" cy="246.33" r="9.24"/><circle class="cls-129" cx="99.14" cy="168.55" r="9.24"/><circle class="cls-130" cx="68.38" cy="138.78" r="9.24"/><circle class="cls-131" cx="35.94" cy="148.98" r="9.24"/><circle class="cls-132" cx="99.14" cy="138.78" r="9.24"/><circle class="cls-133" cx="42.82" cy="164.44" r="9.24"/><circle class="cls-135" cx="42.82" cy="155.19" r="9.24"/><circle class="cls-136" cx="32.62" cy="165.95" r="9.24"/><circle class="cls-137" cx="36.56" cy="176.2" r="9.24"/><circle class="cls-138" cx="121.04" cy="148.98" r="9.24"/><circle class="cls-139" cx="131.4" cy="160.16" r="9.24"/><circle class="cls-140" cx="61.02" cy="226.65" r="9.24"/><circle class="cls-141" cx="133.71" cy="175.19" r="9.24"/><circle class="cls-142" cx="113.97" cy="196.74" r="9.24"/><circle class="cls-143" cx="86.17" cy="203.32" r="9.24"/><circle class="cls-144" cx="70.26" cy="185.44" r="9.24"/><circle class="cls-145" cx="64.63" cy="162.58" r="9.24"/></g></g></svg>